<svg width="4454" height="836" viewBox="0 0 4454 836" fill="none" xmlns="http://www.w3.org/2000/svg">
<path d="M4064.35 743C4054.35 743 4044.35 735.667 4034.35 721C4025.02 706.333 4018.02 685.667 4013.35 659C4008.68 631 4004.35 599 4000.35 563C3996.35 527 3993.02 491.667 3990.35 457C3987.68 422.333 3985.68 391.667 3984.35 365C3983.02 338.333 3982.35 320.333 3982.35 311C3982.35 276.333 3987.68 250.667 3998.35 234C4009.68 216.667 4024.02 208 4041.35 208C4053.35 208 4062.02 211.333 4067.35 218C4072.68 224 4075.35 238 4075.35 260C4075.35 274.667 4075.68 293.667 4076.35 317C4077.02 340.333 4078.02 365.667 4079.35 393C4080.68 425.667 4082.02 460.333 4083.35 497C4084.68 533 4085.68 568.667 4086.35 604C4102.35 577.333 4120.68 547.667 4141.35 515C4162.68 482.333 4184.35 449 4206.35 415C4228.35 380.333 4249.68 347.333 4270.35 316C4291.02 284.667 4309.35 257.333 4325.35 234C4341.35 210.667 4353.68 193.667 4362.35 183C4373.68 169.667 4384.02 160.333 4393.35 155C4403.35 149.667 4412.02 147 4419.35 147C4429.35 147 4437.35 150.667 4443.35 158C4450.02 165.333 4453.35 175.667 4453.35 189C4453.35 197 4451.68 206 4448.35 216C4445.68 225.333 4440.68 235 4433.35 245C4415.35 272.333 4393.68 304.333 4368.35 341C4343.02 377.667 4316.68 415.667 4289.35 455C4262.02 494.333 4235.35 532.667 4209.35 570C4183.35 606.667 4160.68 639 4141.35 667C4107.35 717.667 4081.68 743 4064.35 743Z" fill="black"/>
<path d="M3793.02 337C3793.02 358.333 3786.35 379.333 3773.02 400C3759.68 420 3742.02 439.333 3720.02 458C3698.02 476 3673.68 493 3647.02 509C3620.35 525 3593.68 539 3567.02 551C3540.35 563 3516.02 572.667 3494.02 580C3488.68 606 3486.02 629 3486.02 649C3486.02 661.667 3489.02 670.667 3495.02 676C3501.02 681.333 3510.35 684 3523.02 684C3551.02 684 3580.68 679 3612.02 669C3643.35 659 3675.35 646 3708.02 630C3740.68 614 3772.02 597 3802.02 579C3832.02 561 3859.35 544 3884.02 528C3909.35 512 3930.35 499 3947.02 489C3963.68 479 3974.68 474 3980.02 474C3988.02 474 3994.02 476.667 3998.02 482C4002.68 486.667 4005.02 492.333 4005.02 499C4005.02 504.333 3996.68 514.667 3980.02 530C3964.02 545.333 3942.35 563.333 3915.02 584C3887.68 604 3857.02 624.667 3823.02 646C3789.02 667.333 3753.68 687.333 3717.02 706C3681.02 724.667 3646.02 739.667 3612.02 751C3578.68 762.333 3548.68 768 3522.02 768C3487.35 768 3460.35 755 3441.02 729C3421.68 703 3412.02 662.667 3412.02 608C3412.02 571.333 3416.68 534.333 3426.02 497C3436.02 459.667 3449.35 424 3466.02 390C3483.35 355.333 3502.35 324.667 3523.02 298C3544.35 270.667 3566.68 249.333 3590.02 234C3613.35 218 3636.02 210 3658.02 210C3700.02 210 3733.02 221.667 3757.02 245C3781.02 268.333 3793.02 299 3793.02 337ZM3515.02 503C3535.68 490.333 3557.02 477 3579.02 463C3601.02 449 3621.35 434.667 3640.02 420C3658.68 405.333 3673.68 390 3685.02 374C3697.02 357.333 3703.02 340.333 3703.02 323C3703.02 298.333 3689.68 286 3663.02 286C3646.35 286 3628.68 296.667 3610.02 318C3592.02 338.667 3574.68 365.667 3558.02 399C3541.35 432.333 3527.02 467 3515.02 503Z" fill="black"/>
<path d="M2611.56 836C2600.23 836 2590.56 829.667 2582.56 817C2574.56 805 2570.56 791 2570.56 775C2570.56 768.333 2571.9 762.333 2574.56 757C2577.9 751.667 2582.9 747.667 2589.56 745C2596.9 741.667 2604.23 738.667 2611.56 736C2619.56 732.667 2627.56 729.333 2635.56 726C2633.56 720.667 2631.9 714.333 2630.56 707C2629.23 699.667 2628.56 691 2628.56 681C2628.56 673.667 2629.9 659.667 2632.56 639C2635.9 617.667 2640.23 592.333 2645.56 563C2650.9 533.667 2656.56 502.667 2662.56 470C2669.23 436.667 2675.56 404.333 2681.56 373C2688.23 341 2694.23 312.333 2699.56 287C2711.56 232.333 2726.23 183.333 2743.56 140C2761.56 96.6666 2785.56 62.6666 2815.56 38C2846.23 12.6666 2886.56 0 2936.56 0C2974.56 0 3011.9 8.33332 3048.56 25C3085.9 41.6666 3119.56 65.3333 3149.56 95.9999C3180.23 126 3204.56 161.333 3222.56 202C3240.56 242.667 3249.56 287 3249.56 335C3249.56 376.333 3239.9 415.667 3220.56 453C3201.23 489.667 3175.23 524.333 3142.56 557C3109.9 589.667 3072.56 620 3030.56 648C2989.23 676 2945.9 701.667 2900.56 725C2855.9 747.667 2811.9 767.667 2768.56 785C2725.23 803 2685.23 818 2648.56 830C2643.9 831.333 2638.23 832.667 2631.56 834C2624.9 835.333 2618.23 836 2611.56 836ZM2706.56 698C2764.56 674 2820.9 649.333 2875.56 624C2930.9 598.667 2980.56 570.667 3024.56 540C3068.56 508.667 3103.56 473.667 3129.56 435C3155.56 396.333 3168.56 352 3168.56 302C3168.56 276 3162.56 250.667 3150.56 226C3138.56 201.333 3121.9 179.333 3100.56 160C3079.9 140 3056.23 124.333 3029.56 113C3003.56 101 2976.23 95 2947.56 95C2921.56 95 2898.23 101.667 2877.56 115C2857.56 127.667 2840.23 150.333 2825.56 183C2810.9 215.667 2798.23 261 2787.56 319C2779.56 355 2771.23 394 2762.56 436C2753.9 477.333 2745.23 517 2736.56 555C2728.56 592.333 2721.9 624 2716.56 650C2711.23 675.333 2708.23 690 2707.56 694C2707.56 695.333 2707.23 696.667 2706.56 698Z" fill="black"/>
<path d="M1834.66 745C1815.33 745 1798 734 1782.66 712C1767.33 690 1759.66 661.667 1759.66 627C1759.66 589 1764.66 548.333 1774.66 505C1785.33 461.667 1798.33 417.667 1813.66 373C1829 327.667 1844 284 1858.66 242C1862 233.333 1866.66 227 1872.66 223C1879.33 218.333 1889.33 216 1902.66 216C1926.66 216 1938.66 227.667 1938.66 251C1938.66 256.333 1936 268.333 1930.66 287C1925.33 305.667 1918.33 328.667 1909.66 356C1901.66 383.333 1893.33 413 1884.66 445C1876 476.333 1868.33 508 1861.66 540C1855 572 1850.33 601.667 1847.66 629C1858.33 617.667 1870.33 600.333 1883.66 577C1897.66 553.667 1912.66 527.333 1928.66 498C1944.66 468 1961.33 438 1978.66 408C1996 377.333 2013.33 349.333 2030.66 324C2048.66 298 2066 277.333 2082.66 262C2100 246 2116 238 2130.66 238C2152 238 2170 244.667 2184.66 258C2200 270.667 2211.66 293.333 2219.66 326C2228.33 358 2232.66 403.333 2232.66 462C2232.66 493.333 2235.66 522.667 2241.66 550C2248.33 577.333 2258.66 599.333 2272.66 616C2287.33 632 2306 640 2328.66 640C2362.66 640 2393 634 2419.66 622C2446.33 609.333 2469.33 595.333 2488.66 580C2508.66 564 2525.33 550 2538.66 538C2552 525.333 2562.33 519 2569.66 519C2585 519 2592.66 527 2592.66 543C2592.66 549.667 2587.66 560.333 2577.66 575C2568.33 589 2555 605 2537.66 623C2521 640.333 2501.66 657.333 2479.66 674C2458.33 690 2435.33 703.333 2410.66 714C2386.66 724.667 2362.33 730 2337.66 730C2291.66 730 2254 721 2224.66 703C2196 685 2174.66 655.333 2160.66 614C2147.33 572.667 2140.66 517.333 2140.66 448C2140.66 410 2138.33 382.333 2133.66 365C2129.66 347 2122 335 2110.66 329C2102.66 343 2092.33 363 2079.66 389C2067 414.333 2052.33 442.667 2035.66 474C2019.66 505.333 2002.66 537 1984.66 569C1967.33 600.333 1949.66 629.333 1931.66 656C1913.66 682.667 1896.33 704.333 1879.66 721C1863 737 1848 745 1834.66 745Z" fill="black"/>
<path d="M1511.23 773C1498.56 773 1487.23 768.333 1477.23 759C1467.23 749 1462.23 733.667 1462.23 713C1462.23 698.333 1464.23 678 1468.23 652C1472.23 625.333 1477.56 596.333 1484.23 565C1490.89 533.667 1497.89 502.667 1505.23 472C1513.23 440.667 1521.23 412.667 1529.23 388C1537.23 363.333 1544.23 345 1550.23 333C1555.56 323.667 1560.56 317.667 1565.23 315C1570.56 312.333 1575.56 311 1580.23 311C1589.56 311 1597.56 314 1604.23 320C1611.56 326 1615.23 337.667 1615.23 355C1615.23 365 1613.23 381.667 1609.23 405C1605.89 427.667 1601.23 454.333 1595.23 485C1589.89 515 1583.89 546 1577.23 578C1571.23 609.333 1565.23 639.333 1559.23 668C1553.23 696.667 1548.56 720.667 1545.23 740C1542.56 750.667 1537.89 759 1531.23 765C1525.23 770.333 1518.56 773 1511.23 773ZM1609.23 220C1593.89 220 1579.23 215.333 1565.23 206C1551.89 196.667 1545.23 181.667 1545.23 161C1545.23 143.667 1549.23 129.667 1557.23 119C1565.89 108.333 1575.89 100.667 1587.23 95.9999C1599.23 90.6666 1609.56 88 1618.23 88C1626.89 88 1636.56 90 1647.23 94C1658.56 97.3333 1668.23 104 1676.23 114C1684.23 123.333 1688.23 137.333 1688.23 156C1688.23 168.667 1683.89 180 1675.23 190C1666.56 199.333 1655.89 206.667 1643.23 212C1631.23 217.333 1619.89 220 1609.23 220Z" fill="black"/>
<path d="M884.219 762C848.219 762 814.219 753.667 782.219 737C750.219 720.333 724.219 697 704.219 667C684.219 636.333 674.219 600 674.219 558C674.219 522.667 682.885 485 700.219 445C718.219 404.333 741.219 363.333 769.219 322C797.885 280 828.885 240.333 862.219 203C895.552 165 928.219 131.333 960.219 102C992.219 72 1020.55 48.3333 1045.22 30.9999C1069.89 13.6666 1087.22 5 1097.22 5C1109.89 5 1120.89 8.66665 1130.22 16C1140.22 22.6666 1145.55 33 1146.22 47C1146.22 53.6666 1143.89 61.3333 1139.22 70C1134.55 78 1125.55 86.3333 1112.22 95C1097.55 104.333 1078.89 118.333 1056.22 137C1033.55 155.667 1009.22 178 983.219 204C957.219 229.333 931.552 257 906.219 287C880.885 316.333 857.552 346.667 836.219 378C814.885 408.667 797.885 438.667 785.219 468C772.552 497.333 766.219 524.667 766.219 550C766.219 589.333 777.219 619.333 799.219 640C821.219 660.667 851.552 671 890.219 671C910.219 671 933.885 665.333 961.219 654C988.552 642.667 1016.55 627.667 1045.22 609C1074.55 590.333 1102.55 570 1129.22 548C1155.89 525.333 1178.55 503 1197.22 481C1216.55 459 1229.22 439 1235.22 421C1218.55 425 1197.55 429.333 1172.22 434C1146.89 438.667 1120.55 443 1093.22 447C1066.55 451 1042.22 454.333 1020.22 457C998.219 459.667 982.219 461 972.219 461C951.552 461 935.219 455.667 923.219 445C911.885 434.333 906.219 423.667 906.219 413C906.219 405.667 909.219 398.667 915.219 392C921.219 385.333 930.552 381 943.219 379C957.885 377 977.219 374 1001.22 370C1025.89 365.333 1051.55 361 1078.22 357C1105.55 352.333 1130.55 348.333 1153.22 345C1176.55 341.667 1194.22 340 1206.22 340C1240.89 340 1266.55 350.333 1283.22 371C1299.89 391 1308.22 419.667 1308.22 457C1308.22 475 1299.22 497 1281.22 523C1263.22 549 1238.89 576 1208.22 604C1178.22 631.333 1144.55 657 1107.22 681C1070.55 705 1032.89 724.667 994.219 740C955.552 754.667 918.885 762 884.219 762Z" fill="black"/>
<path d="M29 732C19 732 11.6667 728.333 7 721C2.33333 713.667 0 704.333 0 693C0 683.667 6 670.333 18 653C30.6667 635 47 614 67 590C87.6667 565.333 110.333 539 135 511C159.667 483 184.667 454.667 210 426C179.333 374 156 333 140 303C124 272.333 116 248.333 116 231C116 219 120 208 128 198C136 187.333 144 182 152 182C161.333 182 170.333 187.667 179 199C188.333 209.667 199.667 228 213 254C226.333 279.333 244.333 314.333 267 359C303.667 315 334 279 358 251C382.667 223 402.333 201.333 417 186C432.333 170.667 444.333 160 453 154C462.333 147.333 470.333 144 477 144C485 144 491.667 147.333 497 154C502.333 160 505 170 505 184C505 197.333 498.667 213.667 486 233C474 252.333 458 273.333 438 296C418 318.667 396.333 342 373 366C350.333 389.333 328.667 412 308 434C341.333 491.333 373.333 541.333 404 584C434.667 626 459.333 660.667 478 688C497.333 715.333 507 735.333 507 748C507 756.667 505 763.333 501 768C497 772 489.333 774 478 774C470 774 460.667 770.667 450 764C439.333 757.333 425.667 744.333 409 725C393 705.667 372 677.667 346 641C320.667 603.667 289.333 555 252 495C228.667 521 205.333 548 182 576C159.333 603.333 137.667 629 117 653C97 676.333 79.3333 695.333 64 710C48.6667 724.667 37 732 29 732Z" fill="black"/>
</svg>
