<svg width="70" height="70" viewBox="0 0 70 70" fill="none" xmlns="http://www.w3.org/2000/svg">
<circle cx="35" cy="35" r="35" fill="#1C7CC4"/>
<mask id="mask0_57_13" style="mask-type:alpha" maskUnits="userSpaceOnUse" x="0" y="0" width="70" height="70">
<circle cx="35" cy="35" r="35" fill="#1C7CC4"/>
</mask>
<g mask="url(#mask0_57_13)">
<path d="M1.90234 33.4893C1.90234 31.4899 2.17936 29.5267 2.7334 27.5996C3.28743 25.6484 4.10645 23.7936 5.19043 22.0352C6.27441 20.2767 7.61133 18.6507 9.20117 17.1572C10.8151 15.6396 12.6699 14.3389 14.7656 13.2549C16.8613 12.1468 19.1859 11.2917 21.7393 10.6895C24.3167 10.0632 27.111 9.75 30.1221 9.75C34.1208 9.75 37.5654 10.2679 40.4561 11.3037C43.3467 12.3395 45.888 13.7607 48.0801 15.5674V11.0146H56.6074V24.0225H48.0801C46.9479 22.6494 45.7435 21.445 44.4668 20.4092C43.2142 19.3493 41.8532 18.458 40.3838 17.7354C38.9385 17.0127 37.3486 16.4707 35.6143 16.1094C33.904 15.724 32.0371 15.5312 30.0137 15.5312C27.0267 15.5312 24.377 16.001 22.0645 16.9404C19.752 17.8799 17.8008 19.1686 16.2109 20.8066C14.6211 22.4206 13.4167 24.3236 12.5977 26.5156C11.7786 28.7077 11.3691 31.0443 11.3691 33.5254C11.3691 36.1029 11.7786 38.4756 12.5977 40.6436C13.4167 42.8115 14.6331 44.6904 16.2471 46.2803C17.861 47.846 19.8604 49.0745 22.2451 49.9658C24.6299 50.8571 27.4001 51.3027 30.5557 51.3027C33.374 51.3027 35.9033 50.9775 38.1436 50.3271C40.3838 49.6527 42.2988 48.7253 43.8887 47.5449C45.5026 46.3405 46.7673 44.9072 47.6826 43.2451C48.6221 41.583 49.2002 39.7402 49.417 37.7168H34.2412V33.2002H57.6914V56H49.4531V50.2549C48.4173 51.2666 47.249 52.194 45.9482 53.0371C44.6715 53.8561 43.2383 54.5667 41.6484 55.1689C40.0827 55.7712 38.3483 56.2409 36.4453 56.5781C34.5423 56.9154 32.4707 57.084 30.2305 57.084C25.7259 57.084 21.7152 56.4818 18.1982 55.2773C14.6813 54.0488 11.7184 52.3747 9.30957 50.2549C6.90072 48.1351 5.05794 45.6419 3.78125 42.7754C2.52865 39.9089 1.90234 36.8135 1.90234 33.4893ZM50.248 26.5518H59.209V12.8574H60.6543V27.9248H50.248V26.5518ZM13.9707 33.4893C13.9707 31.2972 14.332 29.2617 15.0547 27.3828C15.8014 25.5039 16.8613 23.8779 18.2344 22.5049C19.6074 21.1077 21.2816 20.0238 23.2568 19.2529C25.2562 18.458 27.5085 18.0605 30.0137 18.0605C31.748 18.0605 33.3138 18.193 34.7109 18.458C36.1322 18.6989 37.3968 19.0602 38.5049 19.542C39.637 20.0238 40.6488 20.626 41.54 21.3486C42.4313 22.0472 43.2383 22.8542 43.9609 23.7695C42.8529 22.9746 41.7689 22.3122 40.709 21.7822C39.6491 21.2282 38.5651 20.7826 37.457 20.4453C36.349 20.084 35.1807 19.8311 33.9521 19.6865C32.7477 19.5179 31.4349 19.4336 30.0137 19.4336C27.7253 19.4336 25.6777 19.807 23.8711 20.5537C22.0645 21.2764 20.5348 22.276 19.2822 23.5527C18.0296 24.8053 17.0661 26.2868 16.3916 27.9971C15.7412 29.7074 15.416 31.5381 15.416 33.4893C15.416 35.1755 15.6569 36.7653 16.1387 38.2588C16.6204 39.7523 17.3792 41.1374 18.415 42.4141C19.4508 43.6908 20.7757 44.859 22.3896 45.9189C24.0036 46.9548 25.9427 47.8701 28.207 48.665C25.9668 48.3037 23.9674 47.7015 22.209 46.8584C20.4505 46.0153 18.957 44.9554 17.7285 43.6787C16.5241 42.3779 15.5967 40.8844 14.9463 39.1982C14.2959 37.488 13.9707 35.585 13.9707 33.4893ZM60.293 58.5293V35.0068H61.7383V59.9023H51.6211V58.5293H60.293ZM36.2646 40.2461H47.3936C47.3454 40.3906 47.2731 40.6074 47.1768 40.8965C47.1045 41.1615 47.0202 41.4023 46.9238 41.6191H36.2646V40.2461ZM11.1523 54.2656C12.5254 55.2051 13.8984 56.012 15.2715 56.6865C16.6686 57.361 18.126 57.915 19.6436 58.3486C21.1852 58.7822 22.8232 59.0954 24.5576 59.2881C26.3161 59.5049 28.2311 59.6133 30.3027 59.6133C32.0853 59.6133 33.7474 59.529 35.2891 59.3604C36.8548 59.1917 38.3242 58.9268 39.6973 58.5654C41.0944 58.2041 42.4072 57.7464 43.6357 57.1924C44.8883 56.6383 46.1048 55.9759 47.2852 55.2051V56.8672C44.804 58.3848 42.1663 59.4447 39.3721 60.0469C36.6019 60.6732 33.5547 60.9863 30.2305 60.9863C25.7982 60.9863 22.0163 60.4323 18.8848 59.3242C15.7773 58.2402 13.1999 56.554 11.1523 54.2656Z" fill="white"/>
</g>
</svg>
